# xmcd CD database file
#
# Track frame offsets:
#	150
#	12943
#	25771
#	40398
#	53062
#	65830
#	78394
#	93430
#	106652
#	121155
#	136062
#	148884
#	163555
#	175944
#	188480
#	202983
#	216675
#	229881
#	250798
#
# Disc length: 3632 seconds
#
# Revision: 0
# Processed by: cddbd v1.5.2PL0 Copyright (c) Steve Scherf et al.
# Submitted via: CDex 1.51
#
DISCID=050e2e13
DTITLE=Don Redman - 1925-1957
DYEAR=2010
DGENRE=Jazz
TTITLE0=Sugar Foot Stomp
TTITLE1=What-Cha-Chall 'Em Blues
TTITLE2=The Stampede
TTITLE3=Tozo
TTITLE4=St.Louis Shuffle
TTITLE5=Four Or Five Times
TTITLE6=Cherry
TTITLE7=Miss Hanna
TTITLE8=Tight Like This
TTITLE9=Save It Pretty Mama
TTITLE10=Shakin The African
TTITLE11=Chant Of The Weed
TTITLE12=Hot And Anxious
TTITLE13=Jump Session
TTITLE14=Chant Of The Weed
TTITLE15=Five O' Clock Whistle
TTITLE16=Gee Baby Ain't I Good To You?
TTITLE17=Laura
TTITLE18=Park Avenue Potter
EXTD=YEAR: 2010
EXTT0=
EXTT1=
EXTT2=
EXTT3=
EXTT4=
EXTT5=
EXTT6=
EXTT7=
EXTT8=
EXTT9=
EXTT10=
EXTT11=
EXTT12=
EXTT13=
EXTT14=
EXTT15=
EXTT16=
EXTT17=
EXTT18=
PLAYORDER=
